<svg width="1440" height="400" viewBox="0 0 1440 400" xmlns="http://www.w3.org/2000/svg">
  <!-- Buildings -->
  <rect x="50" y="100" width="40" height="300" fill="rgba(255, 255, 255, 0.2)"/>
  <rect x="100" y="150" width="60" height="250" fill="rgba(255, 255, 255, 0.15)"/>
  <rect x="170" y="50" width="30" height="350" fill="rgba(255, 255, 255, 0.25)"/>
  <rect x="210" y="200" width="80" height="200" fill="rgba(255, 255, 255, 0.2)"/>
  <rect x="300" y="100" width="50" height="300" fill="rgba(255, 255, 255, 0.15)"/>
  <rect x="360" y="150" width="40" height="250" fill="rgba(255, 255, 255, 0.2)"/>
  <rect x="410" y="80" width="70" height="320" fill="rgba(255, 255, 255, 0.25)"/>
  <rect x="490" y="180" width="30" height="220" fill="rgba(255, 255, 255, 0.15)"/>
  <rect x="530" y="120" width="50" height="280" fill="rgba(255, 255, 255, 0.2)"/>
  <rect x="590" y="50" width="40" height="350" fill="rgba(255, 255, 255, 0.25)"/>
  <rect x="640" y="150" width="60" height="250" fill="rgba(255, 255, 255, 0.15)"/>
  <rect x="710" y="100" width="30" height="300" fill="rgba(255, 255, 255, 0.2)"/>
  <rect x="750" y="200" width="80" height="200" fill="rgba(255, 255, 255, 0.25)"/>
  <rect x="840" y="80" width="50" height="320" fill="rgba(255, 255, 255, 0.15)"/>
  <rect x="900" y="150" width="40" height="250" fill="rgba(255, 255, 255, 0.2)"/>
  <rect x="950" y="100" width="70" height="300" fill="rgba(255, 255, 255, 0.25)"/>
  <rect x="1030" y="180" width="30" height="220" fill="rgba(255, 255, 255, 0.15)"/>
  <rect x="1070" y="50" width="50" height="350" fill="rgba(255, 255, 255, 0.2)"/>
  <rect x="1130" y="150" width="40" height="250" fill="rgba(255, 255, 255, 0.25)"/>
  <rect x="1180" y="100" width="60" height="300" fill="rgba(255, 255, 255, 0.15)"/>
  <rect x="1250" y="200" width="30" height="200" fill="rgba(255, 255, 255, 0.2)"/>
  <rect x="1290" y="80" width="80" height="320" fill="rgba(255, 255, 255, 0.25)"/>
  <rect x="1380" y="150" width="50" height="250" fill="rgba(255, 255, 255, 0.15)"/>
  
  <!-- Windows (small dots) -->
  <g fill="rgba(139, 92, 246, 0.6)">
    <!-- Building windows -->
    <circle cx="70" cy="150" r="2" />
    <circle cx="70" cy="180" r="2" />
    <circle cx="70" cy="210" r="2" />
    <circle cx="70" cy="240" r="2" />
    <circle cx="70" cy="270" r="2" />
    <circle cx="70" cy="300" r="2" />
    <circle cx="70" cy="330" r="2" />
    <circle cx="70" cy="360" r="2" />
    
    <circle cx="130" cy="200" r="2" />
    <circle cx="130" cy="230" r="2" />
    <circle cx="130" cy="260" r="2" />
    <circle cx="130" cy="290" r="2" />
    <circle cx="130" cy="320" r="2" />
    <circle cx="130" cy="350" r="2" />
    
    <!-- More windows scattered across buildings -->
    <circle cx="185" cy="100" r="2" />
    <circle cx="185" cy="130" r="2" />
    <circle cx="185" cy="160" r="2" />
    <circle cx="185" cy="190" r="2" />
    <circle cx="185" cy="220" r="2" />
    <circle cx="185" cy="250" r="2" />
    <circle cx="185" cy="280" r="2" />
    <circle cx="185" cy="310" r="2" />
    <circle cx="185" cy="340" r="2" />
    <circle cx="185" cy="370" r="2" />
    
    <circle cx="250" cy="250" r="2" />
    <circle cx="250" cy="280" r="2" />
    <circle cx="250" cy="310" r="2" />
    <circle cx="250" cy="340" r="2" />
    <circle cx="250" cy="370" r="2" />
    
    <!-- Continue with more windows -->
    <circle cx="325" cy="150" r="2" />
    <circle cx="325" cy="180" r="2" />
    <circle cx="325" cy="210" r="2" />
    <circle cx="325" cy="240" r="2" />
    <circle cx="325" cy="270" r="2" />
    <circle cx="325" cy="300" r="2" />
    <circle cx="325" cy="330" r="2" />
    <circle cx="325" cy="360" r="2" />
    
    <!-- And many more scattered across all buildings -->
  </g>
  
  <!-- Neon accents -->
  <g stroke="rgba(236, 72, 153, 0.7)" stroke-width="1" fill="none">
    <line x1="70" y1="100" x2="70" y2="400" />
    <line x1="185" y1="50" x2="185" y2="400" />
    <line x1="445" y1="80" x2="445" y2="400" />
    <line x1="610" y1="50" x2="610" y2="400" />
    <line x1="1095" y1="50" x2="1095" y2="400" />
    <line x1="1330" y1="80" x2="1330" y2="400" />
  </g>
</svg>
